PathFileType	4	(X/Y/Z)	C:\Users\Basilio\Documents\Thesis Gigler\squatting_fais\c3dfiles\073\SJ_pre2\markers_experimental.trc
DataRate	CameraRate	NumFrames	NumMarkers	Units	OrigDataRate	OrigDataStartFrame	OrigNumFrames
200.000000	200.000000	4	61	mm	200.000000	1324	1514
Frame#	Time	FHD			LBHD			RBHD			C7			T10			CLAV			LSHO			LUUPA			LMUPA			LDUPA			LLEP			LMEP			LRAD			LUL			LRFIN			RSHO			RUPA1			RMUPA			RDUPA			RLEP			RMEP			RRAD			RUL			RUFIN			LASI			RASI			USACR			LSACR			RSACR			LTHI1			LTHI2			LTHI3			LTHI4			LLFC			LMFC			LTIB1			LTIB2			LTIB3			LTIB4			LLMAL			LMMAL			LHEE			LMT1			LMT2			LMT5			RTHI			RTHI2			RTHI3			RTHI4			RLFC			RMFC			RTIB1			RTIB2			RTIB3			RTIB4			RLMAL			RMMAL			RHEE			RMT1			RMT2			RMT5			
		X1	Y1	Z1	X2	Y2	Z2	X3	Y3	Z3	X4	Y4	Z4	X5	Y5	Z5	X6	Y6	Z6	X7	Y7	Z7	X8	Y8	Z8	X9	Y9	Z9	X10	Y10	Z10	X11	Y11	Z11	X12	Y12	Z12	X13	Y13	Z13	X14	Y14	Z14	X15	Y15	Z15	X16	Y16	Z16	X17	Y17	Z17	X18	Y18	Z18	X19	Y19	Z19	X20	Y20	Z20	X21	Y21	Z21	X22	Y22	Z22	X23	Y23	Z23	X24	Y24	Z24	X25	Y25	Z25	X26	Y26	Z26	X27	Y27	Z27	X28	Y28	Z28	X29	Y29	Z29	X30	Y30	Z30	X31	Y31	Z31	X32	Y32	Z32	X33	Y33	Z33	X34	Y34	Z34	X35	Y35	Z35	X36	Y36	Z36	X37	Y37	Z37	X38	Y38	Z38	X39	Y39	Z39	X40	Y40	Z40	X41	Y41	Z41	X42	Y42	Z42	X43	Y43	Z43	X44	Y44	Z44	X45	Y45	Z45	X46	Y46	Z46	X47	Y47	Z47	X48	Y48	Z48	X49	Y49	Z49	X50	Y50	Z50	X51	Y51	Z51	X52	Y52	Z52	X53	Y53	Z53	X54	Y54	Z54	X55	Y55	Z55	X56	Y56	Z56	X57	Y57	Z57	X58	Y58	Z58	X59	Y59	Z59	X60	Y60	Z60	X61	Y61	Z61	

1325	6.62	-200.5510711669922	1582.072265625	-916.152770996094	-332.1435241699219	1626.13916015625	-931.264343261719	-354.1216735839844	1618.94384765625	-796.9670410156252	-445.1390991210939	1529.182495117188	-861.0367431640627	-538.3478393554689	1190.02783203125	-868.5469360351565	-339.8435058593751	1420.53515625	-866.8930664062502	-370.4709777832032	1459.4296875	-1036.802978515625	-457.2814025878907	1375.84228515625	-1153.0283203125	-442.1267700195314	1327.798583984375	-1156.093994140625	-491.2398376464845	1328.336791992188	-1192.31494140625	-531.9143676757814	1245.905883789063	-1241.777709960938	-601.6264648437501	1232.798950195313	-1196.832153320313	-458.2783508300782	1031.482055664063	-1102.101440429688	-427.602996826172	1012.738647460938	-1166.872436523438	-417.2491455078126	1013.954528808594	-1058.788208007813	-347.7113952636719	1446.162353515625	-695.2107543945314	-437.6463317871095	1365.093627929688	-553.7695312500001	-424.7565002441407	1317.444213867188	-549.6129760742189	-472.453582763672	1320.7158203125	-512.8844604492189	-499.2539978027345	1242.18798828125	-469.4505004882814	-574.6592407226564	1233.2353515625	-524.3441772460939	-475.8067016601564	1026.523193359375	-627.8524780273439	-430.4349975585939	1003.784362792969	-572.1044921875001	-416.297576904297	1020.162353515625	-673.4479980468751	-379.1415100097657	1023.897155761719	-1006.193298339844	-367.8771972656251	1012.780212402344	-751.8585205078126	-554.7997436523439	1079.827880859375	-864.9797973632815	-568.6716308593751	1051.9833984375	-892.5363769531252	-568.6674194335939	1048.8623046875	-836.8150634765627	-444.0714721679689	716.6114501953126	-1100.65087890625	-411.0464172363282	638.6461181640626	-1098.97607421875	-367.5816345214844	637.5325927734376	-1074.531127929688	-440.8977966308595	587.7440795898439	-1095.598510742188	-440.1291503906251	531.5034179687501	-1108.078125	-427.3139648437501	500.1490478515626	-974.195495605469	-385.8098449707032	328.9396667480469	-1097.5986328125	-447.9524841308595	297.0148315429688	-1150.042114257813	-405.425262451172	287.2022399902344	-1135.143432617188	-401.831512451172	204.4775848388672	-1115.232666015625	-466.0305786132814	88.03317260742189	-1154.639892578125	-448.1532287597657	102.8477630615235	-1068.203735351563	-519.7571411132814	50.32037734985353	-1114.5390625	-290.8841857910157	55.55932617187501	-1096.247680664063	-293.0682373046876	57.13618850708009	-1135.145874023438	-332.0473022460938	37.9950294494629	-1187.666137695313	-456.817840576172	794.6593017578127	-663.6906738281251	-422.7170715332032	737.7426757812501	-658.3680419921876	-389.5526123046876	737.7185668945314	-664.1536254882814	-453.7908020019532	660.1369018554689	-672.1332397460939	-434.2427978515626	511.4192199707032	-671.6995239257814	-435.6938476562501	485.3967590332032	-799.8884887695315	-391.5927124023439	340.4878845214844	-744.0075683593751	-409.7537231445314	266.0418701171876	-667.7253417968751	-388.1190490722657	260.3620910644532	-710.5057373046876	-405.5525207519532	212.096908569336	-736.8155517578126	-449.910125732422	85.1646194458008	-668.3073120117189	-442.0818176269532	100.5995254516602	-757.9821777343751	-516.3605957031251	42.52821350097657	-720.1236572265626	-287.1629028320313	56.3289031982422	-723.2021484375001	-288.6013488769532	55.90610122680665	-681.9407348632814	-330.4358825683594	34.24855422973634	-634.2084350585939	
1326	6.625	-200.066879272461	1582.561401367188	-913.9400024414065	-332.5606384277344	1626.269165039063	-929.2723388671877	-354.2739562988282	1618.53857421875	-795.0793457031252	-445.1564025878907	1529.127319335938	-859.2170410156252	-538.4686889648439	1190.03857421875	-867.3370361328127	-339.9227294921876	1420.494750976563	-865.4351806640627	-370.5391845703126	1459.6123046875	-1035.088256835938	-457.4241027832032	1376.480712890625	-1151.552856445313	-442.5447082519532	1328.189086914063	-1154.461669921875	-491.6604919433595	1328.646362304688	-1190.5224609375	-532.4182739257814	1246.4013671875	-1240.01708984375	-602.0499877929689	1233.166625976563	-1194.963134765625	-458.6169433593751	1031.59326171875	-1101.065795898438	-427.8688354492189	1012.983703613281	-1165.910034179688	-417.491424560547	1014.057312011719	-1057.80322265625	-347.4910583496094	1445.714965820313	-693.5483398437501	-437.3482971191407	1364.543090820313	-552.1055297851564	-424.4042968750001	1316.989990234375	-548.0723266601564	-472.0833129882814	1320.197021484375	-511.1949157714845	-498.7328491210939	1241.6181640625	-468.1292419433595	-574.3574218750001	1232.7109375	-522.7446289062501	-474.9876403808595	1026.125122070313	-626.6323242187501	-429.8695678710939	1003.427917480469	-570.9913940429689	-415.913055419922	1019.989868164063	-672.3977661132814	-379.2845153808594	1023.917541503906	-1005.177917480469	-367.6886596679688	1012.739440917969	-751.0397338867189	-554.8606567382814	1079.875122070313	-863.7796020507815	-568.6225585937501	1052.009643554688	-891.472839355469	-568.4767456054689	1048.818725585938	-835.645446777344	-444.1264953613282	716.6334838867189	-1099.845581054688	-411.1768493652345	638.6194458007814	-1098.382934570313	-367.7095947265626	637.5730590820314	-1073.891845703125	-440.8834838867189	587.7603149414064	-1094.965087890625	-440.3105773925782	531.5530395507814	-1107.48583984375	-427.2276000976564	500.0496826171876	-973.7548828125002	-385.7894592285157	329.0516357421876	-1097.321899414063	-447.9537353515626	297.1860351562501	-1149.669067382813	-405.3933410644532	287.3262023925782	-1134.9208984375	-401.8087158203126	204.5522766113282	-1115.080200195313	-465.8736267089845	88.24048614501955	-1154.593383789063	-448.0997619628907	102.8594055175782	-1068.123291015625	-519.7612304687501	50.40810394287111	-1114.435546875	-290.8454589843751	55.55545806884767	-1096.252075195313	-293.1366271972657	57.0542335510254	-1135.138793945313	-331.9982910156251	38.00313949584962	-1187.628784179688	-456.4476928710939	794.6358032226565	-662.7822875976564	-422.4820251464845	737.6882934570314	-657.5824584960939	-389.2862854003907	737.6782226562501	-663.4148559570314	-453.6221313476564	660.1542968750001	-671.5210571289064	-434.206268310547	511.3551635742189	-671.1638793945314	-435.8394470214845	485.4697570800782	-799.3350830078127	-391.6012268066407	340.5068664550782	-743.7362670898439	-409.5821838378907	265.9631958007813	-667.3223266601564	-387.9683837890626	260.3942871093751	-710.2801513671876	-405.5786132812501	212.1020202636719	-736.6376953125001	-449.8858642578126	85.1294403076172	-668.2769775390626	-442.1231384277345	100.6138000488282	-757.9610595703126	-516.3479614257814	42.53619766235352	-720.0686035156251	-287.1658325195313	56.28079223632814	-723.2153930664064	-288.6092834472657	55.91218948364259	-681.9399414062501	-330.4347229003907	34.24894714355469	-634.2062377929689	
1327	6.63	-199.9377899169922	1583.17578125	-912.0007934570315	-332.6148376464844	1626.4853515625	-927.2602539062502	-354.6313476562501	1618.3466796875	-793.123962402344	-445.138885498047	1529.08203125	-857.291198730469	-538.4305419921876	1189.982666015625	-866.2109375000002	-339.9372863769532	1420.427978515625	-863.9057617187502	-370.6140136718751	1459.992797851563	-1033.50927734375	-458.4439086914064	1376.369262695313	-1149.20849609375	-442.8207397460939	1328.51513671875	-1152.848388671875	-492.1013183593751	1329.091552734375	-1188.723266601563	-532.9967041015626	1246.848510742188	-1238.278686523438	-602.4526367187501	1233.429565429688	-1193.114624023438	-458.8800659179689	1031.692993164063	-1099.974853515625	-428.0424194335939	1013.365051269531	-1164.836791992188	-417.6869201660157	1014.071899414063	-1056.7890625	-347.4170837402344	1445.528198242188	-691.9871826171876	-437.0222167968751	1364.040893554688	-550.5616455078126	-424.1064758300782	1316.417358398438	-546.4847412109376	-471.7129821777345	1319.663208007813	-509.6092224121095	-498.3464965820314	1240.96923828125	-466.4595336914064	-573.9827880859376	1232.160400390625	-521.0290527343751	-474.8019409179689	1025.854858398438	-625.5938720703126	-429.5008544921876	1003.045104980469	-570.0866699218751	-415.5583496093751	1019.820373535156	-671.3340454101564	-379.5432739257813	1023.952026367188	-1004.325561523438	-367.4812622070313	1012.755676269531	-750.2100830078126	-554.6812133789064	1079.834594726563	-862.7945556640627	-568.7036743164064	1051.9482421875	-890.3466796875002	-568.4798583984376	1048.75830078125	-834.5366210937502	-444.2518310546876	716.6776123046876	-1099.07568359375	-411.5444641113282	638.4505004882814	-1097.368286132813	-367.6941833496094	637.6217651367189	-1073.232543945313	-440.9629211425782	587.7484741210939	-1094.2890625	-440.412078857422	531.5723876953126	-1106.960571289063	-427.0991821289064	499.9368896484376	-973.260192871094	-385.8608398437501	329.0896606445313	-1097.12109375	-448.1857299804689	297.0466003417969	-1149.438110351563	-405.4512023925782	287.4435729980469	-1134.716186523438	-401.7907714843751	204.6416473388672	-1114.970703125	-465.830047607422	88.38006591796876	-1154.52294921875	-448.0661010742189	102.857666015625	-1068.035400390625	-519.7312011718751	50.46884536743165	-1114.424682617188	-290.7491760253907	55.5359573364258	-1096.231567382813	-293.0942382812501	57.0278778076172	-1135.108642578125	-331.9950561523438	38.01182556152344	-1187.619262695313	-456.1856689453126	794.577087402344	-661.8860473632814	-422.1778869628907	737.6732788085939	-656.8106079101564	-388.9927978515626	737.6585083007814	-662.7833862304689	-453.4078674316407	660.1275634765626	-670.7761840820314	-434.0085754394532	511.3252563476564	-670.7344360351564	-435.8634033203126	485.5010681152345	-798.767761230469	-391.484832763672	340.5383605957032	-743.4498901367189	-409.3804626464845	265.8948059082032	-667.1622314453126	-387.8829040527345	260.3665771484376	-710.0626220703126	-405.5437927246095	212.112533569336	-736.4963989257814	-449.8674926757814	85.09526824951173	-668.2070922851564	-442.1673889160157	100.6294097900391	-757.8341064453126	-516.3417968750001	42.53756332397462	-720.0512084960939	-287.1723327636719	56.29317855834962	-723.2191162109376	-288.5953063964844	55.86478805541994	-681.9625244140626	-330.4325561523438	34.24870681762696	-634.2027587890626	
1328	6.635	-200.3573303222657	1583.6474609375	-910.2393798828127	-333.0636291503907	1626.662719726563	-925.3848876953127	-354.7127075195313	1618.142211914063	-791.0422973632815	-445.131561279297	1529.008911132813	-855.6563110351565	-538.3437500000001	1189.9052734375	-864.9446411132815	-339.8054199218751	1420.435791015625	-862.2579345703127	-370.8733520507813	1460.276977539063	-1031.984619140625	-458.6463012695314	1376.972045898438	-1148.126953125	-443.3008728027345	1328.90869140625	-1151.452514648438	-492.9293212890626	1329.750610351563	-1187.63818359375	-533.5727539062501	1247.283447265625	-1236.7138671875	-602.8219604492189	1233.8037109375	-1191.27294921875	-459.0614013671876	1031.828369140625	-1098.8955078125	-428.4212951660157	1013.585998535156	-1163.918823242188	-417.8222045898439	1014.022216796875	-1055.895751953125	-347.2019042968751	1445.188232421875	-690.5181884765626	-436.653533935547	1363.619506835938	-549.0300903320314	-423.7193908691407	1316.011596679688	-545.0158691406251	-471.3471984863282	1319.121704101563	-508.0867309570314	-497.7157592773439	1240.3037109375	-465.509002685547	-573.5691528320314	1231.602416992188	-519.5590209960939	-474.5564880371095	1025.661865234375	-624.5296630859376	-428.9942321777345	1002.651306152344	-569.0700683593751	-415.3013000488282	1019.670593261719	-670.3530883789064	-379.7021789550782	1023.968688964844	-1003.607604980469	-367.2294921875001	1012.814086914063	-749.3299560546876	-554.6906127929689	1079.8828125	-861.6583251953127	-568.6282348632814	1051.889526367188	-889.2927856445315	-568.4968872070314	1048.741088867188	-833.486267089844	-444.309539794922	716.7243041992189	-1098.305541992188	-411.6075744628907	638.4556884765626	-1096.77685546875	-367.7269897460938	637.6445312500001	-1072.707275390625	-441.0337829589845	587.7251586914064	-1093.705932617188	-440.3759765625001	531.6061401367189	-1106.473999023438	-426.9452209472657	499.8506164550782	-972.7058715820315	-385.8084716796876	329.1901245117188	-1096.801025390625	-447.9418334960939	297.4435119628907	-1149.057495117188	-405.4309692382814	287.5804138183594	-1134.5087890625	-401.7366027832032	204.7441101074219	-1114.814331054688	-465.8150939941407	88.49462890625001	-1154.423828125	-447.9819641113282	102.8536605834961	-1067.990112304688	-519.6990966796876	50.53636932373048	-1114.314575195313	-290.7093505859376	55.51482009887697	-1096.221313476563	-292.9630126953126	57.00306320190431	-1135.090698242188	-331.9748840332032	38.00423431396485	-1187.5908203125	-455.8946228027345	794.5209960937502	-661.1120605468751	-421.8961181640626	737.5590209960939	-656.1105346679689	-388.7401428222657	737.6142578125001	-662.1107177734376	-453.1377868652345	660.0858154296876	-670.0217895507814	-433.8118896484376	511.2491149902345	-670.0772094726564	-435.973114013672	485.5956420898439	-798.2483520507815	-391.5347290039064	340.5242614746094	-743.1403808593751	-409.2041931152345	265.7422180175782	-666.0361328125001	-387.6595458984376	260.3941650390626	-709.7962646484376	-405.5433654785157	212.0589904785157	-736.3639526367189	-449.8905639648439	85.07816314697267	-668.1202392578126	-442.1761474609376	100.6307449340821	-757.7965087890626	-516.3834838867189	42.52234268188477	-720.0011596679689	-287.1819152832032	56.2947235107422	-723.2189941406251	-288.6036071777344	55.85791778564455	-681.9639282226564	-330.4240417480469	34.22610473632813	-634.2028198242189	
